<?xml version="1.0" encoding="utf-8"?>
<!-- Generator: Adobe Illustrator 23.0.1, SVG Export Plug-In . SVG Version: 6.00 Build 0)  -->
<svg version="1.1" baseProfile="basic" id="图层_1"
	 xmlns="http://www.w3.org/2000/svg" xmlns:xlink="http://www.w3.org/1999/xlink" x="0px" y="0px" viewBox="0 0 198 48"
	 xml:space="preserve">
<style type="text/css">
	.st0{fill:#FFFFFF;}
</style>
<path class="st0" d="M0,24c0,13.3,10.7,24,24,24s24-10.7,24-24S37.3,0,24,0S0,10.7,0,24z"/>
<path class="st0" d="M78,24c0,13.3,10.7,24,24,24s24-10.7,24-24S115.3,0,102,0S78,10.7,78,24z"/>
<path class="st0" d="M150,24c0,13.3,10.7,24,24,24s24-10.7,24-24S187.3,0,174,0S150,10.7,150,24z"/>
</svg>
