<?xml version="1.0" standalone="no"?><!DOCTYPE svg PUBLIC "-//W3C//DTD SVG 1.1//EN" "http://www.w3.org/Graphics/SVG/1.1/DTD/svg11.dtd"><svg t="1575471686601" class="icon" viewBox="0 0 1024 1024" version="1.1" xmlns="http://www.w3.org/2000/svg" p-id="2356" xmlns:xlink="http://www.w3.org/1999/xlink" width="200" height="200"><defs><style type="text/css">@font-face { font-family: "PINGFANG SC"; src: local("PINGFANG SC"); font-weight: 400; }
@font-face { font-family: "PINGFANG SC"; font-weight: 400; src: local("Microsoft YaHei UI"), local("Microsoft YaHei"), local("微软雅黑"), local("微軟雅黑"), local("WenQuanYi Micro Hei"), local("Droid Sans Fallback"); unicode-range: U+2E80-9FFF, U+F900-FAFF, U+FE30-FE6F, U+FF00-FFEF, U+1B000-1B0FF, U+20000-2FA1F; }
@font-face { font-family: "PINGFANG SC"; font-weight: bold; src: local("Microsoft YaHei UI"), local("Microsoft YaHei"), local("微软雅黑"), local("微軟雅黑"), local("WenQuanYi Micro Hei"), local("Droid Sans Fallback"); unicode-range: U+2E80-9FFF, U+F900-FAFF, U+FE30-FE6F, U+FF00-FFEF, U+1B000-1B0FF, U+20000-2FA1F; }
@font-face { font-family: TAHOMA; src: local("TAHOMA"); font-weight: 400; }
@font-face { font-family: TAHOMA; font-weight: 400; src: local("Microsoft YaHei UI"), local("Microsoft YaHei"), local("微软雅黑"), local("微軟雅黑"), local("WenQuanYi Micro Hei"), local("Droid Sans Fallback"); unicode-range: U+2E80-9FFF, U+F900-FAFF, U+FE30-FE6F, U+FF00-FFEF, U+1B000-1B0FF, U+20000-2FA1F; }
@font-face { font-family: TAHOMA; font-weight: bold; src: local("Microsoft YaHei UI"), local("Microsoft YaHei"), local("微软雅黑"), local("微軟雅黑"), local("WenQuanYi Micro Hei"), local("Droid Sans Fallback"); unicode-range: U+2E80-9FFF, U+F900-FAFF, U+FE30-FE6F, U+FF00-FFEF, U+1B000-1B0FF, U+20000-2FA1F; }
@font-face { font-family: "MICROSOFT YAHEI"; src: local("MICROSOFT YAHEI"); font-weight: 400; }
@font-face { font-family: "MICROSOFT YAHEI"; font-weight: 400; src: local("Microsoft YaHei UI"), local("Microsoft YaHei"), local("微软雅黑"), local("微軟雅黑"), local("WenQuanYi Micro Hei"), local("Droid Sans Fallback"); unicode-range: U+2E80-9FFF, U+F900-FAFF, U+FE30-FE6F, U+FF00-FFEF, U+1B000-1B0FF, U+20000-2FA1F; }
@font-face { font-family: "MICROSOFT YAHEI"; font-weight: bold; src: local("Microsoft YaHei UI"), local("Microsoft YaHei"), local("微软雅黑"), local("微軟雅黑"), local("WenQuanYi Micro Hei"), local("Droid Sans Fallback"); unicode-range: U+2E80-9FFF, U+F900-FAFF, U+FE30-FE6F, U+FF00-FFEF, U+1B000-1B0FF, U+20000-2FA1F; }
@font-face { font-family: 微软雅黑; src: local("微软雅黑"); font-weight: 400; }
@font-face { font-family: 微软雅黑; font-weight: 400; src: local("Microsoft YaHei UI"), local("Microsoft YaHei"), local("微软雅黑"), local("微軟雅黑"), local("WenQuanYi Micro Hei"), local("Droid Sans Fallback"); unicode-range: U+2E80-9FFF, U+F900-FAFF, U+FE30-FE6F, U+FF00-FFEF, U+1B000-1B0FF, U+20000-2FA1F; }
@font-face { font-family: 微软雅黑; font-weight: bold; src: local("Microsoft YaHei UI"), local("Microsoft YaHei"), local("微软雅黑"), local("微軟雅黑"), local("WenQuanYi Micro Hei"), local("Droid Sans Fallback"); unicode-range: U+2E80-9FFF, U+F900-FAFF, U+FE30-FE6F, U+FF00-FFEF, U+1B000-1B0FF, U+20000-2FA1F; }
@font-face { font-family: TAHOMA; src: local("TAHOMA"); font-weight: 700; }
@font-face { font-family: TAHOMA; font-weight: 700; src: local("Microsoft YaHei UI"), local("Microsoft YaHei"), local("微软雅黑"), local("微軟雅黑"), local("WenQuanYi Micro Hei"), local("Droid Sans Fallback"); unicode-range: U+2E80-9FFF, U+F900-FAFF, U+FE30-FE6F, U+FF00-FFEF, U+1B000-1B0FF, U+20000-2FA1F; }
@font-face { font-family: TAHOMA; font-weight: bold; src: local("Microsoft YaHei UI"), local("Microsoft YaHei"), local("微软雅黑"), local("微軟雅黑"), local("WenQuanYi Micro Hei"), local("Droid Sans Fallback"); unicode-range: U+2E80-9FFF, U+F900-FAFF, U+FE30-FE6F, U+FF00-FFEF, U+1B000-1B0FF, U+20000-2FA1F; }
@font-face { font-family: "MICROSOFT YAHEI"; src: local("MICROSOFT YAHEI"); font-weight: 700; }
@font-face { font-family: "MICROSOFT YAHEI"; font-weight: 700; src: local("Microsoft YaHei UI"), local("Microsoft YaHei"), local("微软雅黑"), local("微軟雅黑"), local("WenQuanYi Micro Hei"), local("Droid Sans Fallback"); unicode-range: U+2E80-9FFF, U+F900-FAFF, U+FE30-FE6F, U+FF00-FFEF, U+1B000-1B0FF, U+20000-2FA1F; }
@font-face { font-family: "MICROSOFT YAHEI"; font-weight: bold; src: local("Microsoft YaHei UI"), local("Microsoft YaHei"), local("微软雅黑"), local("微軟雅黑"), local("WenQuanYi Micro Hei"), local("Droid Sans Fallback"); unicode-range: U+2E80-9FFF, U+F900-FAFF, U+FE30-FE6F, U+FF00-FFEF, U+1B000-1B0FF, U+20000-2FA1F; }
@font-face { font-family: 微软雅黑; src: local("微软雅黑"); font-weight: 700; }
@font-face { font-family: 微软雅黑; font-weight: 700; src: local("Microsoft YaHei UI"), local("Microsoft YaHei"), local("微软雅黑"), local("微軟雅黑"), local("WenQuanYi Micro Hei"), local("Droid Sans Fallback"); unicode-range: U+2E80-9FFF, U+F900-FAFF, U+FE30-FE6F, U+FF00-FFEF, U+1B000-1B0FF, U+20000-2FA1F; }
@font-face { font-family: 微软雅黑; font-weight: bold; src: local("Microsoft YaHei UI"), local("Microsoft YaHei"), local("微软雅黑"), local("微軟雅黑"), local("WenQuanYi Micro Hei"), local("Droid Sans Fallback"); unicode-range: U+2E80-9FFF, U+F900-FAFF, U+FE30-FE6F, U+FF00-FFEF, U+1B000-1B0FF, U+20000-2FA1F; }
</style></defs><path d="M225.8944 790.1184c-58.368 0-113.2544-22.7328-154.4192-63.8976-41.1648-41.1648-63.8976-96.0512-63.8976-154.4192h122.88c0 52.6336 42.8032 95.4368 95.4368 95.4368 52.6336 0 95.4368-42.8032 95.4368-95.4368s-42.8032-95.4368-95.4368-95.4368H61.2352L111.616 159.744h350.4128v122.88h-245.76l-11.264 70.656h20.6848c58.368 0 113.2544 22.7328 154.4192 63.8976 41.1648 41.1648 63.8976 96.0512 63.8976 154.4192s-22.7328 113.2544-63.8976 154.4192c-40.96 41.3696-95.8464 64.1024-154.2144 64.1024z" fill="#006CB6" p-id="2357"></path><path d="M689.7664 496.0256v122.88h193.7408c-9.6256 30.72-26.624 58.7776-50.176 82.3296-38.2976 38.2976-89.4976 59.5968-143.7696 59.5968s-105.2672-21.0944-143.7696-59.5968c-38.2976-38.2976-59.5968-89.4976-59.5968-143.7696s21.0944-105.2672 59.5968-143.7696c38.2976-38.2976 89.4976-59.5968 143.7696-59.5968v-122.88c-44.032 0-86.6304 8.6016-126.976 25.6-38.912 16.384-73.728 39.936-103.6288 69.8368-25.1904 25.1904-45.8752 53.8624-61.44 85.4016 1.2288 1.2288 2.6624 2.4576 3.8912 3.8912 43.4176 43.4176 67.1744 100.9664 67.1744 162.2016 0 55.9104-19.8656 108.9536-56.5248 150.7328 13.1072 21.2992 28.8768 41.1648 46.6944 58.9824 29.9008 29.9008 64.7168 53.4528 103.6288 69.8368 40.3456 16.9984 82.944 25.6 126.976 25.6s86.6304-8.6016 126.976-25.6c38.912-16.384 73.728-39.936 103.6288-69.8368 29.9008-29.9008 53.4528-64.7168 69.8368-103.6288 16.9984-40.3456 25.6-82.944 25.6-126.976v-61.44h-325.632z" fill="#E7372F" p-id="2358"></path></svg>