<?xml version="1.0" encoding="utf-8"?>
<!-- Generator: Adobe Illustrator 23.0.1, SVG Export Plug-In . SVG Version: 6.00 Build 0)  -->
<svg version="1.1" baseProfile="basic" id="图层_1"
	 xmlns="http://www.w3.org/2000/svg" xmlns:xlink="http://www.w3.org/1999/xlink" x="0px" y="0px" viewBox="0 0 200 200"
	 xml:space="preserve">
<style type="text/css">
	.st0{fill:#001417;fill-opacity:0.7;}
</style>
<path class="st0" d="M29.2,129.2v-25h-25c-2.3,0-4.2-1.9-4.2-4.2s1.9-4.2,4.2-4.2c0,0,0,0,0,0h25v-25h-25C1.9,70.8,0,69,0,66.7
	s1.9-4.2,4.2-4.2c0,0,0,0,0,0h25V35.4c0-3.5,2.8-6.2,6.2-6.2h27.1v-25c0-2.3,1.9-4.2,4.2-4.2s4.2,1.9,4.2,4.2c0,0,0,0,0,0v25h25v-25
	c0-2.3,1.9-4.2,4.2-4.2c2.3,0,4.2,1.9,4.2,4.2c0,0,0,0,0,0v25h25v-25c0-2.3,1.9-4.2,4.2-4.2c2.3,0,4.2,1.9,4.2,4.2v25h27.1
	c3.5,0,6.2,2.8,6.2,6.2v27.1h25c2.3,0,4.2,1.9,4.2,4.2s-1.9,4.2-4.2,4.2c0,0,0,0,0,0h-25v25h25c2.3,0,4.2,1.9,4.2,4.2
	c0,2.3-1.9,4.2-4.2,4.2c0,0,0,0,0,0h-25v25h25c2.3,0,4.2,1.9,4.2,4.2c0,2.3-1.9,4.2-4.2,4.2h-25v27.1c0,3.5-2.8,6.2-6.2,6.2h-27.1
	v25c0,2.3-1.9,4.2-4.2,4.2c-2.3,0-4.2-1.9-4.2-4.2v-25h-25v25c0,2.3-1.9,4.2-4.2,4.2s-4.2-1.9-4.2-4.2c0,0,0,0,0,0v-25h-25v25
	c0,2.3-1.9,4.2-4.2,4.2s-4.2-1.9-4.2-4.2c0,0,0,0,0,0v-25H35.4c-3.5,0-6.2-2.8-6.2-6.2v-27.1h-25c-2.3,0-4.2-1.9-4.2-4.2
	c0-2.3,1.9-4.2,4.2-4.2H29.2z M41.7,41.7v116.7h116.7V41.7C158.3,41.7,41.7,41.7,41.7,41.7z M65.6,65.6v68.8h68.8V65.6
	C134.4,65.6,65.6,65.6,65.6,65.6z M62.5,59.4h75c1.7,0,3.1,1.4,3.1,3.1v75c0,1.7-1.4,3.1-3.1,3.1h-75c-1.7,0-3.1-1.4-3.1-3.1v-75
	C59.4,60.8,60.8,59.4,62.5,59.4z"/>
</svg>
