<?xml version="1.0" encoding="utf-8"?>
<!-- Generator: Adobe Illustrator 23.0.1, SVG Export Plug-In . SVG Version: 6.00 Build 0)  -->
<svg version="1.1" baseProfile="basic" id="图层_1"
	 xmlns="http://www.w3.org/2000/svg" xmlns:xlink="http://www.w3.org/1999/xlink" x="0px" y="0px" viewBox="0 0 200 200"
	 xml:space="preserve">
<style type="text/css">
	.st0{fill:#23130D;}
	.st1{fill:#F9C139;}
	.st2{fill:#E1E1E5;}
	.st3{opacity:0.2;}
	.st4{fill:#3594BF;}
	.st5{fill:#EC7063;}
</style>
<path class="st0" d="M141.5,56.6H58.5c-1.1,0-2,0.9-2,2v82.9c0,1.1,0.9,2,2,2h82.9c1.1,0,2-0.9,2-2V58.5
	C143.4,57.5,142.5,56.6,141.5,56.6z M139.5,139.5h-79v-79h79V139.5z"/>
<path class="st0" d="M171.2,83.6c1.1,0,2-0.9,2-2v-2.8h16.4c1.1,0,2-0.9,2-2s-0.9-2-2-2h-16.4v-2.8c0-1.1-0.9-2-2-2h-7.6v-9.7h7.6
	c1.1,0,2-0.9,2-2v-2.8h16.4c1.1,0,2-0.9,2-2c0-1.1-0.9-2-2-2h-16.4V49c0-1.1-0.9-2-2-2h-7.6v-8.7c0-1.1-0.9-2-2-2h-8.7v-7.6
	c0-1.1-0.9-2-2-2h-2.8V10.5c0-1.1-0.9-2-2-2s-2,0.9-2,2v16.4h-2.8c-1.1,0-2,0.9-2,2v7.6h-9.7v-7.6c0-1.1-0.9-2-2-2h-2.8V10.5
	c0-1.1-0.9-2-2-2c-1.1,0-2,0.9-2,2v16.4h-2.8c-1.1,0-2,0.9-2,2v7.6h-9.7v-7.6c0-1.1-0.9-2-2-2H102V10.5c0-1.1-0.9-2-2-2s-2,0.9-2,2
	v16.4h-2.8c-1.1,0-2,0.9-2,2v7.6h-9.7v-7.6c0-1.1-0.9-2-2-2h-2.8V10.5c0-1.1-0.9-2-2-2s-2,0.9-2,2v16.4h-2.8c-1.1,0-2,0.9-2,2v7.6
	h-9.7v-7.6c0-1.1-0.9-2-2-2h-2.8V10.5c0-1.1-0.9-2-2-2c-1.1,0-2,0.9-2,2v16.4H49c-1.1,0-2,0.9-2,2v7.6h-8.7c-1.1,0-2,0.9-2,2v8.7
	h-7.6c-1.1,0-2,0.9-2,2v2.8H10.5c-1.1,0-2,0.9-2,2c0,1.1,0.9,2,2,2h16.4v2.8c0,1.1,0.9,2,2,2h7.6v9.7h-7.6c-1.1,0-2,0.9-2,2v2.8
	H10.5c-1.1,0-2,0.9-2,2c0,1.1,0.9,2,2,2h16.4v2.8c0,1.1,0.9,2,2,2h7.6v9.7h-7.6c-1.1,0-2,0.9-2,2V98H10.5c-1.1,0-2,0.9-2,2
	s0.9,2,2,2h16.4v2.8c0,1.1,0.9,2,2,2h7.6v9.7h-7.6c-1.1,0-2,0.9-2,2v2.8H10.5c-1.1,0-2,0.9-2,2c0,1.1,0.9,2,2,2h16.4v2.8
	c0,1.1,0.9,2,2,2h7.6v9.7h-7.6c-1.1,0-2,0.9-2,2v2.8H10.5c-1.1,0-2,0.9-2,2s0.9,2,2,2h16.4v2.8c0,1.1,0.9,2,2,2h7.6v8.7
	c0,1.1,0.9,2,2,2h8.7v7.6c0,1.1,0.9,2,2,2h2.8v16.4c0,1.1,0.9,2,2,2c1.1,0,2-0.9,2-2v-16.4h2.8c1.1,0,2-0.9,2-2v-7.6h9.7v7.6
	c0,1.1,0.9,2,2,2h2.8v16.4c0,1.1,0.9,2,2,2c1.1,0,2-0.9,2-2v-16.4h2.8c1.1,0,2-0.9,2-2v-7.6h9.7v7.6c0,1.1,0.9,2,2,2H98v16.4
	c0,1.1,0.9,2,2,2s2-0.9,2-2v-16.4h2.8c1.1,0,2-0.9,2-2v-7.6h9.7v7.6c0,1.1,0.9,2,2,2h2.8v16.4c0,1.1,0.9,2,2,2c1.1,0,2-0.9,2-2
	v-16.4h2.8c1.1,0,2-0.9,2-2v-7.6h9.7v7.6c0,1.1,0.9,2,2,2h2.8v16.4c0,1.1,0.9,2,2,2s2-0.9,2-2v-16.4h2.8c1.1,0,2-0.9,2-2v-7.6h8.7
	c1.1,0,2-0.9,2-2v-8.7h7.6c1.1,0,2-0.9,2-2v-2.8h16.4c1.1,0,2-0.9,2-2s-0.9-2-2-2h-16.4v-2.8c0-1.1-0.9-2-2-2h-7.6v-9.7h7.6
	c1.1,0,2-0.9,2-2v-2.8h16.4c1.1,0,2-0.9,2-2c0-1.1-0.9-2-2-2h-16.4v-2.8c0-1.1-0.9-2-2-2h-7.6v-9.7h7.6c1.1,0,2-0.9,2-2V102h16.4
	c1.1,0,2-0.9,2-2s-0.9-2-2-2h-16.4v-2.8c0-1.1-0.9-2-2-2h-7.6v-9.7H171.2L171.2,83.6z M163.6,51h5.6v5.6h-5.6V51z M163.6,74.1h5.6
	v5.6h-5.6V74.1z M36.4,149h-5.6v-5.6h5.6C36.4,143.4,36.4,149,36.4,149z M36.4,125.9h-5.6v-5.6h5.6
	C36.4,120.3,36.4,125.9,36.4,125.9z M36.4,102.8h-5.6v-5.6h5.6C36.4,97.2,36.4,102.8,36.4,102.8z M36.4,79.7h-5.6v-5.6h5.6
	C36.4,74.1,36.4,79.7,36.4,79.7z M36.4,56.6h-5.6V51h5.6C36.4,51,36.4,56.6,36.4,56.6z M143.4,30.8h5.6v5.6h-5.6L143.4,30.8
	L143.4,30.8z M120.3,30.8h5.6v5.6h-5.6C120.3,36.4,120.3,30.8,120.3,30.8z M97.2,30.8h5.6v5.6h-5.6L97.2,30.8L97.2,30.8z M74.1,30.8
	h5.6v5.6h-5.6L74.1,30.8L74.1,30.8z M51,30.8h5.6v5.6H51L51,30.8L51,30.8z M56.6,169.2H51v-5.6h5.6L56.6,169.2L56.6,169.2z
	 M79.7,169.2h-5.6v-5.6h5.6V169.2z M102.8,169.2h-5.6v-5.6h5.6V169.2z M125.9,169.2h-5.6v-5.6h5.6V169.2z M149,169.2h-5.6v-5.6h5.6
	V169.2z M159.7,141.4v18.2H40.3V40.3h119.4V141.4L159.7,141.4z M169.2,143.4v5.6h-5.6v-5.6H169.2z M169.2,120.3v5.6h-5.6v-5.6H169.2
	z M169.2,97.2v5.6h-5.6v-5.6H169.2z"/>
<path class="st1" d="M163.6,143.4h5.6v5.6h-5.6V143.4z M169.2,120.3v5.6h-5.6v-5.6H169.2z M163.6,97.2h5.6v5.6h-5.6V97.2z
	 M169.2,74.1v5.6h-5.6v-5.6H169.2z M163.6,51h5.6v5.6h-5.6V51z M149,30.8v5.6h-5.6v-5.6H149z M125.9,30.8v5.6h-5.6v-5.6H125.9z
	 M102.8,30.8v5.6h-5.6v-5.6H102.8z M30.8,51h5.6v5.6h-5.6V51z M79.7,30.8v5.6h-5.6v-5.6H79.7z M56.6,30.8v5.6H51v-5.6H56.6z
	 M30.8,74.1h5.6v5.6h-5.6V74.1z M30.8,97.2h5.6v5.6h-5.6V97.2z M30.8,120.3h5.6v5.6h-5.6V120.3z M30.8,143.4h5.6v5.6h-5.6V143.4z
	 M51,163.6h5.6v5.6H51V163.6z M74.1,163.6h5.6v5.6h-5.6V163.6z M97.2,163.6h5.6v5.6h-5.6V163.6z M120.3,163.6h5.6v5.6h-5.6V163.6z
	 M143.4,163.6h5.6v5.6h-5.6V163.6z"/>
<path class="st2" d="M40.3,40.3v119.4h119.4V151v0v-9.5v0V40.3C159.7,40.3,40.3,40.3,40.3,40.3z M143.4,141.5c0,1.1-0.9,2-2,2H58.5
	c-1.1,0-2-0.9-2-2V58.5c0-1.1,0.9-2,2-2h82.9c1.1,0,2,0.9,2,2L143.4,141.5L143.4,141.5z"/>
<path class="st3" d="M157.7,42.3v115.4H42.3V42.3H157.7 M58.5,145.4h82.9c2.2,0,3.9-1.8,3.9-3.9V58.5c0-2.2-1.8-3.9-3.9-3.9H58.5
	c-2.2,0-3.9,1.8-3.9,3.9v82.9C54.6,143.6,56.4,145.4,58.5,145.4 M159.7,40.3H40.3v119.4h119.4V151v0v-9.5v0V40.3L159.7,40.3z
	 M58.5,143.4c-1.1,0-2-0.9-2-2V58.5c0-1.1,0.9-2,2-2h82.9c1.1,0,2,0.9,2,2v82.9c0,1.1-0.9,2-2,2H58.5z"/>
<path class="st4" d="M60.5,60.5v79h79v-79H60.5z M130.6,92.4c0,1.1-0.9,2-2,2h-8.4v11.3h8.4c1.1,0,2,0.9,2,2v20.9c0,1.1-0.9,2-2,2
	h-20.9c-1.1,0-2-0.9-2-2v-8.2H94.9v8.2c0,1.1-0.9,2-2,2H72.1c-1.1,0-2-0.9-2-2v-20.9c0-1.1,0.9-2,2-2h8.5V94.4h-8.5
	c-1.1,0-2-0.9-2-2V71.5c0-1.1,0.9-2,2-2h20.9c1.1,0,2,0.9,2,2V80h10.9v-8.5c0-1.1,0.9-2,2-2h20.9c1.1,0,2,0.9,2,2V92.4z"/>
<path class="st0" d="M128.7,94.4c1.1,0,2-0.9,2-2V71.5c0-1.1-0.9-2-2-2h-20.9c-1.1,0-2,0.9-2,2V80H94.9v-8.5c0-1.1-0.9-2-2-2H72.1
	c-1.1,0-2,0.9-2,2v20.9c0,1.1,0.9,2,2,2h8.5v11.3h-8.5c-1.1,0-2,0.9-2,2v20.9c0,1.1,0.9,2,2,2h20.9c1.1,0,2-0.9,2-2v-8.2h10.9v8.2
	c0,1.1,0.9,2,2,2h20.9c1.1,0,2-0.9,2-2v-20.9c0-1.1-0.9-2-2-2h-8.4V94.4H128.7z M74,90.5v-17h17v17H74z M91,126.5H74v-17h17V126.5z
	 M105.8,107.6v8.8H94.9v-8.8c0-1.1-0.9-2-2-2h-8.5V94.4h8.5c1.1,0,2-0.9,2-2v-8.5h10.9v8.5c0,1.1,0.9,2,2,2h8.6v11.3h-8.6
	C106.7,105.6,105.8,106.5,105.8,107.6z M126.7,109.5v17h-17v-17H126.7z M109.7,90.5v-17h17v17H109.7z"/>
<path class="st1" d="M109.7,109.5h17v17h-17V109.5z M109.7,73.5h17v17h-17V73.5z"/>
<path class="st5" d="M116.4,94.4v11.3h-8.6c-1.1,0-2,0.9-2,2v8.8H94.9v-8.8c0-1.1-0.9-2-2-2h-8.5V94.4h8.5c1.1,0,2-0.9,2-2v-8.5
	h10.9v8.5c0,1.1,0.9,2,2,2H116.4z"/>
<path class="st1" d="M74,109.5h17v17H74V109.5z M74,73.5h17v17H74V73.5z"/>
<path class="st3" d="M124.8,111.5v13.1h-13.1v-13.1H124.8 M126.7,109.5h-17v17h17V109.5z M124.8,75.4v13.1h-13.1V75.4H124.8
	 M126.7,73.5h-17v17h17V73.5z"/>
<path class="st3" d="M103.9,85.9v6.5c0,2.2,1.8,3.9,3.9,3.9h6.7v7.4h-6.7c-2.2,0-3.9,1.8-3.9,3.9v6.8h-7v-6.8c0-2.2-1.8-3.9-3.9-3.9
	h-6.5v-7.4h6.5c2.2,0,3.9-1.8,3.9-3.9v-6.5H103.9 M105.8,83.9H94.9v8.5c0,1.1-0.9,2-2,2h-8.5v11.3h8.5c1.1,0,2,0.9,2,2v8.8h10.9
	v-8.8c0-1.1,0.9-2,2-2h8.6V94.4h-8.6c-1.1,0-2-0.9-2-2V83.9z"/>
<path class="st3" d="M89,111.5v13.1H76v-13.1H89 M91,109.5H74v17h17V109.5z M89,75.4v13.1H76V75.4H89 M91,73.5H74v17h17V73.5z"/>
</svg>
