<?xml version="1.0" encoding="utf-8"?>
<!-- Generator: Adobe Illustrator 23.0.1, SVG Export Plug-In . SVG Version: 6.00 Build 0)  -->
<svg version="1.1" id="Capa_1" xmlns="http://www.w3.org/2000/svg" xmlns:xlink="http://www.w3.org/1999/xlink" x="0px" y="0px"
	 viewBox="0 0 87.5 87.5" style="enable-background:new 0 0 87.5 87.5;" xml:space="preserve">
<style type="text/css">
	.st0{fill:none;stroke:#000000;stroke-miterlimit:10;}
	.st1{fill:none;stroke:#000000;stroke-width:2;stroke-miterlimit:10;}
	.st2{display:none;fill:none;stroke:#000000;stroke-miterlimit:10;}
</style>
<g>
	<path class="st0" d="M44.6,44c-1.1,0-2-0.9-2-2c0-1.1,0.9-2,2-2c1.1,0,2,0.9,2,2c0,0.2,0,0.4-0.1,0.6l2.3,2.3
		c0.2-0.6,0.3-1.2,0.3-1.8v-9.6c0-3.2-2.6-5.8-5.8-5.8h-0.4h-1.7h-0.4c-3.2,0-5.8,2.6-5.8,5.8v9.6c0,3.2,2.6,5.8,5.8,5.8h2.6
		c1.9,0,3.5-0.9,4.6-2.3l-2.7-2.7C45,44,44.8,44,44.6,44z"/>
	<path class="st0" d="M44.6,25.9V13.1c0-1-0.8-1.8-1.8-1.8h-1.7c-1,0-1.8,0.8-1.8,1.8v12.8c0,1,0.8,1.8,1.8,1.8h1.7
		C43.8,27.7,44.6,26.9,44.6,25.9z"/>
	<path class="st0" d="M47.9,46.6l-2.7-2.7C45,44,44.8,44,44.6,44c-1.1,0-2-0.9-2-2c0-1.1,0.9-2,2-2c1.1,0,2,0.9,2,2
		c0,0.2,0,0.4-0.1,0.6l2.3,2.3l9.9,9.9c0,0,0,0,0,0c0.2-0.1,0.4-0.1,0.7-0.1H62c1,0,1.7,0.8,1.7,1.7v0.3c0,1-0.8,1.7-1.7,1.7h-2.6
		c-1,0-1.7-0.8-1.7-1.7v-0.3c0,0,0-0.1,0-0.1c-0.1,0-0.2-0.1-0.3-0.2L47.9,46.6z"/>
</g>
<g>
	<path class="st1" d="M39.4,13.5c-0.4,0-0.8,0.1-1.1,0.2c-11.1,2-19.4,11.8-19.6,23.1c-0.1,7,2.7,13.5,7.7,18.1v17.7h29.8V61.2h3
		c4.2,0,7.7-3.5,7.7-7.7V50l6.3-4.8l-7.2-10.1l-0.2-3.9l-0.1-0.3c-2.6-9.6-11.1-16.6-21-17.5"/>
</g>
<path class="st2" d="M62,54.7h-2.6c-0.2,0-0.5,0.1-0.7,0.1c0,0,0,0,0,0L46.5,42.6c0.1-0.2,0.1-0.4,0.1-0.6c0-1.1-0.9-2-2-2
	c-1.1,0-2,0.9-2,2c0,1.1,0.9,2,2,2c0.2,0,0.4,0,0.6-0.1l12.2,12.2c0.1,0.1,0.2,0.2,0.3,0.2c0,0,0,0.1,0,0.1v0.3c0,1,0.8,1.7,1.7,1.7
	H62c1,0,1.7-0.8,1.7-1.7v-0.3C63.7,55.5,63,54.7,62,54.7z"/>
</svg>
