<?xml version="1.0" encoding="utf-8"?>
<!-- Generator: Adobe Illustrator 23.0.1, SVG Export Plug-In . SVG Version: 6.00 Build 0)  -->
<svg version="1.1" baseProfile="basic" id="图层_1"
	 xmlns="http://www.w3.org/2000/svg" xmlns:xlink="http://www.w3.org/1999/xlink" x="0px" y="0px" viewBox="0 0 200 200"
	 xml:space="preserve">
<style type="text/css">
	.st0{fill:#51A0F2;}
</style>
<path class="st0" d="M193.8,182.8h-29.2l-56.8-92.3c17.6-4.3,28.4-22,24.1-39.6c-4.3-17.6-22-28.4-39.6-24.1s-28.4,22-24.1,39.6
	C71,78.3,80.3,87.6,92.2,90.5l-56.8,92.3H6.2c-2.6,0-4.7,2.1-4.7,4.7s2.1,4.7,4.7,4.7h187.5c2.6,0,4.7-2.1,4.7-4.7
	S196.3,182.8,193.8,182.8z M77.9,131.8h17.4v16.4H67.8L77.9,131.8z M104.7,103.4l11.7,18.8h-11.7V103.4z M95.3,122.2H83.6l11.7-18.8
	V122.2z M104.7,131.6h17.4l10.1,16.4h-27.5L104.7,131.6z M137.5,157.6h0.4l15.6,25.3h-48.8v-25L137.5,157.6z M76.6,58.9
	C76.4,46,86.8,35.4,99.7,35.3c12.9-0.1,23.5,10.2,23.7,23.2c0.1,12.9-10.2,23.5-23.2,23.7c-0.1,0-0.2,0-0.2,0
	C87.1,82.2,76.6,71.8,76.6,58.9C76.6,58.9,76.6,58.9,76.6,58.9z M62.1,157.5h33.2v25H46.5L62.1,157.5z"/>
<path class="st0" d="M36.1,108.3c2.6,0.2,4.8-1.8,5-4.4c0.1-1.5-0.5-3-1.7-3.9C27.7,89.2,20.9,74.1,20.6,58.1
	c0.5-16.1,7.5-31.4,19.4-42.2c1.5-2.1,1.1-5-1-6.5c-1.5-1.1-3.6-1.2-5.2-0.2C20,21.8,11.9,39.6,11.5,58.4c0.3,18.4,8,35.8,21.3,48.5
	C33.7,107.8,34.9,108.3,36.1,108.3z M64.6,93.8c2.6,0,4.7-2.1,4.7-4.7c0-1.2-0.5-2.4-1.4-3.3c-7.6-7.1-12-17-12.2-27.4
	c0.2-10.6,4.7-20.6,12.5-27.8c1.5-2.1,1.1-5-1-6.5c-1.5-1.1-3.6-1.2-5.2-0.2c-9.7,8.9-15.4,21.4-15.6,34.6
	c0.2,12.9,5.6,25.1,14.9,34C62.2,93.2,63.4,93.7,64.6,93.8z M179.1,58.4c-0.3,15.9-7.1,31.1-18.8,41.9c-1.9,1.8-2,4.7-0.2,6.6
	c1.8,1.9,4.7,2,6.6,0.2c0.1-0.1,0.2-0.2,0.2-0.2c13.3-12.7,21-30.1,21.3-48.5C188,39.6,180,21.8,166.2,9.1c-2.2-1.4-5.1-0.7-6.5,1.5
	c-1,1.6-0.9,3.7,0.2,5.2C171.9,26.8,178.8,42.2,179.1,58.4L179.1,58.4z M144.2,58.3c-0.2,10.4-4.5,20.3-12.1,27.4
	c-1.9,1.8-2,4.7-0.2,6.6s4.7,2,6.6,0.2c0.1-0.1,0.2-0.2,0.2-0.2c9.3-8.9,14.7-21.1,14.9-34c-0.2-13.2-5.8-25.6-15.5-34.6
	c-2.2-1.4-5.1-0.7-6.5,1.5c-1,1.6-0.9,3.7,0.2,5.2C139.6,37.7,144.1,47.8,144.2,58.3L144.2,58.3z"/>
</svg>
